<?xml version="1.0" encoding="UTF-8" standalone="no"?>
<!-- Generator: Adobe Illustrator 23.1.1, SVG Export Plug-In . SVG Version: 6.00 Build 0)  -->

<svg
   xmlns:dc="http://purl.org/dc/elements/1.1/"
   xmlns:cc="http://creativecommons.org/ns#"
   xmlns:rdf="http://www.w3.org/1999/02/22-rdf-syntax-ns#"
   xmlns:svg="http://www.w3.org/2000/svg"
   xmlns="http://www.w3.org/2000/svg"
   xmlns:sodipodi="http://sodipodi.sourceforge.net/DTD/sodipodi-0.dtd"
   xmlns:inkscape="http://www.inkscape.org/namespaces/inkscape"
   version="1.1"
   id="Layer_1"
   x="0px"
   y="0px"
   viewBox="0 0 599.99998 599.99999"
   xml:space="preserve"
   sodipodi:docname="ents.svg"
   width="600"
   height="600"
   inkscape:version="0.92.4 (5da689c313, 2019-01-14)"><metadata
   id="metadata37"><rdf:RDF><cc:Work
       rdf:about=""><dc:format>image/svg+xml</dc:format><dc:type
         rdf:resource="http://purl.org/dc/dcmitype/StillImage" /></cc:Work></rdf:RDF></metadata><defs
   id="defs35" /><sodipodi:namedview
   pagecolor="#ffffff"
   bordercolor="#666666"
   borderopacity="1"
   objecttolerance="10"
   gridtolerance="10"
   guidetolerance="10"
   inkscape:pageopacity="0"
   inkscape:pageshadow="2"
   inkscape:window-width="716"
   inkscape:window-height="480"
   id="namedview33"
   showgrid="false"
   inkscape:zoom="0.2385452"
   inkscape:cx="162.74369"
   inkscape:cy="246.50814"
   inkscape:window-x="0"
   inkscape:window-y="0"
   inkscape:window-maximized="0"
   inkscape:current-layer="Layer_1" />
<g
   id="g30"
   style="fill:#ffffff;fill-opacity:1"
   transform="matrix(1.2676715,0,0,1.2595885,-548.30763,-234.24567)">
	<path
   d="m 764.33,405.87 c 9.79,15.45 19.44,28.61 26.78,42.96 5.08,9.92 7.97,21.28 9.95,32.34 1.55,8.68 -3.76,14.25 -12.38,18.01 -24.06,10.5 -47.69,22 -71.47,33.15 -29.98,14.06 -59.97,28.1 -89.91,42.24 -61.19,28.89 -122.34,57.89 -183.61,86.61 -2.82,1.32 -8.69,1.64 -9.66,0.15 -1.7,-2.6 -2.01,-7.58 -0.64,-10.5 25.36,-54.29 51.12,-108.39 76.67,-162.59 28.11,-59.62 56.12,-119.28 84.09,-178.97 7.18,-15.32 12.67,-18.51 29.5,-14.48 22.19,5.32 40.37,18.39 58.14,31.89 8.59,6.52 9.53,6.53 13.74,-3.29 9.15,-21.32 17.09,-42.9 18.71,-66.4 0.2,-2.9 4.06,-7.56 6.63,-7.85 5.27,-0.6 6.82,4.01 6.48,8.87 -1.73,24.56 -9.35,47.5 -19.32,69.79 -1.05,2.35 -1.85,4.86 -3.25,6.98 -3.28,4.96 -2.19,8.65 1.92,12.77 14.83,14.86 14.7,14.95 31.58,2.14 2.72,-2.06 5.47,-4.58 8.61,-5.45 2.49,-0.69 6.86,-0.09 8.07,1.6 1.23,1.72 0.68,6.53 -0.94,8.14 -4.83,4.79 -10.47,8.8 -15.97,12.88 -4.38,3.26 -5.39,6.47 -0.8,10.28 0.44,0.36 0.9,0.74 1.21,1.21 9.04,13.96 19.61,16.52 36.5,11.41 19.08,-5.78 39.99,-5.63 60.15,-7.59 3,-0.29 6.72,1.32 9.18,3.23 1.26,0.98 1.45,5.31 0.34,6.82 -1.37,1.86 -4.53,3.11 -7.03,3.33 -15.92,1.43 -31.93,2.02 -47.78,3.9 -8.34,1.01 -16.42,4.07 -25.49,6.42 z M 588.14,360.33 c -0.84,-0.18 -1.69,-0.37 -2.53,-0.55 -3.88,8.02 -7.65,16.08 -11.65,24.04 -14.38,28.62 -27.87,57.38 -30.34,90.16 -2.82,37.49 2.76,73.4 16.78,108.19 2.58,6.4 5.93,7.02 11.76,4.22 23.91,-11.51 47.91,-22.83 71.99,-33.96 5.2,-2.4 5.6,-4.95 3.36,-9.98 -12.52,-28.11 -25.39,-56.11 -36.75,-84.7 -10.88,-27.36 -17.83,-55.96 -21.33,-85.29 -0.48,-4.03 -0.86,-8.08 -1.29,-12.13 z M 762.16,496.38 C 694.48,459.12 644.08,407.24 602.97,342.82 c -0.8,4.23 -1.51,5.85 -1.33,7.37 2.09,18.14 2.65,36.65 6.82,54.31 10.92,46.3 29.93,89.7 51.06,132.19 2.24,4.51 4.5,6.2 9.97,3.51 18.17,-8.96 36.72,-17.16 55.06,-25.77 12.04,-5.65 23.99,-11.51 37.61,-18.05 z m -21.72,-95.93 c -3.05,-3.37 -4.89,-5.45 -6.78,-7.48 -10.36,-11.14 -10.37,-11.13 -21.26,-0.3 -0.61,0.6 -1.2,1.66 -1.86,1.7 -3.19,0.22 -6.77,1 -9.43,-0.18 -1.11,-0.49 -0.72,-5.43 -0.19,-8.19 0.34,-1.78 2.05,-3.37 3.32,-4.89 8.61,-10.3 8.63,-10.28 -1.29,-18.86 -1.08,-0.94 -2.16,-1.88 -3.15,-2.91 -3.31,-3.46 -5.69,-2.75 -7.94,1.3 -3.05,5.49 -5.9,11.25 -9.93,15.96 -1.77,2.07 -6.24,1.82 -9.48,2.63 -0.46,-3.23 -2.2,-6.99 -1.13,-9.58 2.47,-6.01 6.19,-11.52 9.63,-17.1 2.7,-4.38 2.52,-7.83 -1.94,-11 -6.52,-4.63 -12.42,-10.27 -19.32,-14.2 -12.6,-7.18 -25.41,-14.21 -38.76,-19.8 -9.67,-4.05 -15.05,1.29 -11.39,11.07 4.37,11.66 9.31,23.45 16.09,33.82 25.24,38.61 57.26,71.17 93.25,99.8 16.77,13.34 34.11,26.16 55.04,32.42 3.84,1.15 10.4,1.15 12.27,-1.13 2.1,-2.56 1.32,-8.65 0,-12.62 -6.84,-20.66 -19.66,-37.92 -32.97,-54.73 -1.53,-1.93 -6.22,-3.06 -8.65,-2.22 -5.88,2.02 -11.24,5.52 -16.9,8.24 -4.24,2.04 -8.84,5.69 -12.32,-1.11 -3.42,-6.7 2.32,-8.58 6.23,-10.9 5.61,-3.31 11.55,-6.01 18.86,-9.74 z m -286.5,237.8 c 0.71,0.65 1.41,1.29 2.12,1.94 2.29,-0.92 4.64,-1.73 6.87,-2.77 26.07,-12.22 52.09,-24.54 78.2,-36.67 10.55,-4.9 10.51,-4.66 6.1,-15.82 -10.12,-25.65 -16.62,-52.1 -17.21,-79.82 -0.14,-6.61 -0.68,-13.21 -1.04,-19.81 -0.88,-0.17 -1.77,-0.35 -2.65,-0.52 -24.13,51.16 -48.26,102.31 -72.39,153.47 z"
   id="path2"
   style="fill:#ffffff;fill-opacity:1"
   inkscape:connector-curvature="0" />
	<path
   d="m 558.29,225.56 c -4,2.82 -6.07,5.41 -8.47,5.78 -13.98,2.14 -21.92,9.8 -24.3,23.8 -0.41,2.38 -3.59,4.29 -5.49,6.42 -2.29,-2.12 -6.22,-3.97 -6.6,-6.39 -2.25,-14.19 -10.52,-21.42 -24.23,-23.97 -2.23,-0.42 -5.51,-4.02 -5.38,-5.97 0.14,-2.16 3.41,-5.59 5.67,-5.91 14.33,-2.02 21.36,-10.49 23.98,-24.11 0.45,-2.36 3.73,-5.49 6,-5.76 1.74,-0.21 5.26,3.26 5.74,5.56 2.89,13.89 10.09,22.61 24.99,24.08 2.27,0.2 4.26,3.29 8.09,6.47 z m -30.55,-0.06 c -3.19,-2.66 -5.46,-6.03 -7.72,-6.03 -2.29,0 -4.58,3.34 -6.86,5.22 2.15,2.31 4,5.9 6.56,6.5 1.84,0.43 4.61,-3.12 8.02,-5.69 z"
   id="path4"
   style="fill:#ffffff;fill-opacity:1"
   inkscape:connector-curvature="0" />
	<path
   d="m 520.66,404.31 c -3.81,2.57 -5.87,4.95 -8.32,5.45 -13.07,2.69 -21.86,9.02 -23.58,23.39 -0.31,2.59 -4.57,4.7 -7,7.04 -2.13,-2.68 -5.77,-5.18 -6.13,-8.08 -1.58,-12.85 -9.7,-18.44 -20.98,-21.92 -3.12,-0.96 -5.46,-4.49 -8.15,-6.85 2.67,-2.04 5.05,-5.13 8.05,-5.95 11.88,-3.22 19.86,-9.34 21.28,-22.53 0.28,-2.58 3.9,-4.8 5.99,-7.18 2.27,2.07 6.19,3.89 6.53,6.24 2.13,14.78 11.01,21.8 24.99,24.23 2.11,0.36 3.8,3.09 7.32,6.16 z m -30.21,-0.09 c -3.44,-2.83 -5.7,-6.14 -7.85,-6.07 -2.22,0.08 -4.32,3.43 -6.48,5.36 1.96,2.15 3.71,5.72 5.94,6.05 2.1,0.3 4.69,-2.82 8.39,-5.34 z"
   id="path6"
   style="fill:#ffffff;fill-opacity:1"
   inkscape:connector-curvature="0" />
	<path
   d="m 862.48,643.68 c -3.4,-4.8 -6.48,-7.27 -6.99,-10.19 -2.27,-12.96 -9.53,-20.01 -22.48,-22.22 -2.58,-0.44 -4.63,-4.06 -6.92,-6.21 2.38,-2.36 4.47,-6.33 7.18,-6.81 12.59,-2.22 19.6,-9.1 22.16,-21.58 0.59,-2.86 3.9,-6.65 6.58,-7.26 5.08,-1.15 6.1,3.32 6.87,7.61 2.27,12.61 8.64,18.21 21.33,21.06 3.11,0.7 5.52,4.51 8.25,6.88 -2.61,2.18 -4.92,5.6 -7.89,6.33 -14.51,3.55 -19.36,8.41 -22.36,23.17 -0.5,2.49 -2.79,4.62 -5.73,9.22 z m 7.44,-38.7 c -3.18,-2.69 -5.62,-6.26 -7.54,-6.01 -2.64,0.35 -4.89,3.61 -7.3,5.62 2.29,2.19 4.34,5.62 6.97,6.14 1.87,0.38 4.52,-3.15 7.87,-5.75 z"
   id="path8"
   style="fill:#ffffff;fill-opacity:1"
   inkscape:connector-curvature="0" />
	<path
   d="m 869.81,185.97 c 2.99,4.96 5.45,7.41 5.99,10.22 2.57,13.48 10.39,20.95 23.89,23.27 2.29,0.39 5.75,3.78 5.67,5.65 -0.09,2.15 -3.3,5.66 -5.54,5.99 -14.61,2.14 -21.9,10.72 -24.47,24.73 -0.4,2.21 -4.09,5.41 -6.1,5.3 -2.09,-0.12 -5.32,-3.45 -5.75,-5.8 -2.42,-13.35 -9.28,-21.55 -23.24,-23.67 -2.55,-0.39 -4.6,-4.04 -6.87,-6.19 2.43,-2.24 4.58,-5.95 7.35,-6.49 13.27,-2.56 20.43,-10.1 22.46,-23.37 0.43,-2.67 3.32,-4.97 6.61,-9.64 z m -0.32,47.32 c 2.72,-3.17 6.51,-5.89 6.09,-7.51 -0.68,-2.62 -4.13,-4.52 -6.41,-6.73 -2,2.12 -5.52,4.2 -5.59,6.37 -0.05,2.24 3.27,4.57 5.91,7.87 z"
   id="path10"
   style="fill:#ffffff;fill-opacity:1"
   inkscape:connector-curvature="0" />
	<path
   d="m 863.16,434.25 c -0.19,-12.49 9.09,-22.29 21.05,-22.24 11.98,0.05 21.61,9.35 21.63,20.87 0.03,12.42 -9.23,21.98 -21.31,22.01 -12.12,0.04 -21.19,-8.72 -21.37,-20.64 z m 21.23,10.69 c 3.58,-5.22 7.37,-8.37 7.39,-11.55 0.02,-2.47 -5.2,-7.35 -7.15,-6.91 -3.2,0.71 -7.27,4.53 -7.89,7.65 -0.47,2.37 3.83,5.7 7.65,10.81 z"
   id="path12"
   style="fill:#ffffff;fill-opacity:1"
   inkscape:connector-curvature="0" />
	<path
   d="m 481.7,335.72 c -11.99,0 -20.38,-8.44 -20.29,-20.4 0.1,-13.3 8.54,-22.45 20.62,-22.35 12.04,0.1 22.01,10 21.91,21.75 -0.11,12.09 -9.55,21 -22.24,21 z m 1.38,-9.76 c 3.26,-5.65 6.83,-9.1 6.54,-12.18 -0.24,-2.62 -4.93,-4.83 -7.65,-7.22 -2.52,2.9 -6.64,5.59 -7.05,8.77 -0.33,2.45 3.99,5.5 8.16,10.63 z"
   id="path14"
   style="fill:#ffffff;fill-opacity:1"
   inkscape:connector-curvature="0" />
	<path
   d="m 720.39,576.2 c 12.81,0.42 21.79,9.44 21.47,21.55 -0.34,12.62 -10.24,21.7 -23.07,21.15 -11.02,-0.47 -19.94,-10.37 -19.65,-21.79 0.31,-12.36 9.4,-21.3 21.25,-20.91 z m -0.16,32.37 c 4.04,-5.27 8.33,-8.54 7.85,-10.79 -0.7,-3.25 -4.85,-5.76 -7.52,-8.59 -2.58,2.53 -7.02,4.92 -7.23,7.63 -0.24,2.97 3.44,6.25 6.9,11.75 z"
   id="path16"
   style="fill:#ffffff;fill-opacity:1"
   inkscape:connector-curvature="0" />
	<path
   d="m 786.44,224.14 c -0.16,14.37 -8.39,22.62 -22.22,22.25 -11.56,-0.3 -20.87,-10.17 -20.58,-21.8 0.29,-11.53 10.13,-20.79 21.82,-20.55 12.3,0.26 21.1,8.69 20.98,20.1 z m -32,1.97 c 4.93,3.18 8.42,7.1 10.69,6.49 3.16,-0.85 5.41,-5.09 8.05,-7.88 -2.99,-2.47 -5.78,-6.47 -9.04,-6.9 -2.3,-0.31 -5.23,4.25 -9.7,8.29 z"
   id="path18"
   style="fill:#ffffff;fill-opacity:1"
   inkscape:connector-curvature="0" />
	<path
   d="m 869.02,320.82 c -11.73,-0.03 -21.31,-9.63 -21.09,-21.15 0.22,-11.96 10.18,-21.72 22.01,-21.57 11.23,0.15 20.75,9.62 20.83,20.72 0.08,13.4 -8.46,22.04 -21.75,22 z m 0.16,-10.3 c 3.64,-4.53 7.94,-7.59 7.64,-10.11 -0.36,-3.04 -4.62,-5.62 -7.19,-8.4 -2.71,2.68 -7.04,5.05 -7.61,8.13 -0.45,2.42 3.73,5.7 7.16,10.38 z"
   id="path20"
   style="fill:#ffffff;fill-opacity:1"
   inkscape:connector-curvature="0" />
	<path
   d="m 655.07,274.77 c 0.56,-19.22 -6.94,-33.64 -24.24,-42.99 -2.63,-1.42 -3.54,-6.03 -5.24,-9.17 3.79,-0.77 8.29,-3.25 11.26,-2.03 21.23,8.73 29.56,26.5 31.55,48.03 0.47,5.08 0.66,10.54 -0.79,15.29 -0.88,2.87 -5.14,4.71 -7.89,7.02 -1.72,-2.82 -3.98,-5.46 -4.98,-8.52 -0.73,-2.26 0.16,-5.06 0.33,-7.63 z"
   id="path22"
   style="fill:#ffffff;fill-opacity:1"
   inkscape:connector-curvature="0" />
	<path
   d="m 877.89,492.96 c -3.19,2.75 -5.39,6.09 -7.26,5.91 -2.64,-0.26 -6.59,-2.64 -7.28,-4.93 -4.69,-15.58 -13.27,-27.73 -28.21,-34.83 -3.34,-1.59 -6.75,-3.24 -10.31,-4.11 -4.79,-1.17 -7.76,-4.06 -5.63,-8.36 1.12,-2.27 6.17,-4.41 8.84,-3.83 15.23,3.3 28.66,10.28 37.04,23.98 4.83,7.89 8.22,16.66 12.81,26.17 z"
   id="path24"
   style="fill:#ffffff;fill-opacity:1"
   inkscape:connector-curvature="0" />
	<path
   d="m 825.17,248.8 c 1.36,1.08 4.91,2.53 5.14,4.4 0.3,2.48 -1.32,6.89 -3.25,7.67 -15.86,6.42 -29.16,16.42 -41.86,27.59 -1.88,1.66 -6.12,0.64 -9.27,0.86 -0.15,-3.16 -1.74,-7.71 -0.24,-9.27 13.17,-13.63 27.88,-25.21 46.47,-30.75 0.54,-0.16 1.12,-0.2 3.01,-0.5 z"
   id="path26"
   style="fill:#ffffff;fill-opacity:1"
   inkscape:connector-curvature="0" />
	<path
   d="m 814.72,335.86 c -8.21,0.81 -16.42,2.08 -24.64,2.18 -2.9,0.04 -5.84,-2.78 -8.77,-4.3 2.26,-2.69 4.25,-7.37 6.83,-7.73 10.91,-1.5 21.99,-2.06 33.01,-2.25 4.89,-0.08 10.3,1.4 9.47,8.23 -0.83,6.82 -6.34,5.05 -10.73,4.93 -1.71,-0.05 -3.41,-0.32 -5.11,-0.49 -0.02,-0.18 -0.04,-0.38 -0.06,-0.57 z"
   id="path28"
   style="fill:#ffffff;fill-opacity:1"
   inkscape:connector-curvature="0" />
</g>
</svg>