<?xml version="1.0" encoding="utf-8"?>
<!-- Generator: Adobe Illustrator 24.0.0, SVG Export Plug-In . SVG Version: 6.00 Build 0)  -->
<svg version="1.1" xmlns="http://www.w3.org/2000/svg" xmlns:xlink="http://www.w3.org/1999/xlink" x="0px" y="0px"
	 viewBox="0 0 800 600" style="enable-background:new 0 0 800 600;" xml:space="preserve">
<style type="text/css">
	.st0{fill:#FFFFFF;}
</style>
<g id="Layer_1">
</g>
<g id="Layer_2">
	<g>
		<path class="st0" d="M394.55,498.07c-30.91,0-61.83,0.01-92.74,0c-38.16-0.01-76.33-0.1-114.49,0
			c-8.76,0.02-17.28-0.81-25.46-4.11c-21.81-8.79-36.22-29.65-36.36-53.34c-0.16-27.16,0-54.33,0-81.49
			c0-29.83-0.03-59.66-0.02-89.49c0-36.83-0.14-73.66,0.09-110.49c0.17-26.95,18.83-49.93,45.16-55.71
			c5.71-1.25,11.74-1.41,17.63-1.43C225.17,101.9,262,102,298.83,102c43.08,0,86.16-0.05,129.24-0.05c57.74,0,115.49,0.1,173.23,0
			c9.54-0.02,18.88,0.7,27.55,4.88c22.33,10.76,34.47,28.58,34.6,53.45c0.3,55.41,0.06,110.82,0.05,166.23
			c-0.01,37.66-0.02,75.33,0.01,112.99c0.02,32.46-25.03,58.2-57.48,58.46c-31.83,0.26-63.66,0.05-95.49,0.06
			c-37.5,0.01-74.99,0.04-112.49,0.06C396.88,498.07,395.72,498.07,394.55,498.07z M173.55,128.45c-0.08,0.21-0.16,0.41-0.23,0.62
			c0.85,0.77,1.68,1.56,2.55,2.31c30.6,26.62,61.21,53.23,91.8,79.86c37.95,33.02,75.88,66.05,113.83,99.07
			c8.27,7.19,17.65,7.2,25.91,0.02c39.21-34.1,78.42-68.22,117.63-102.32c29.66-25.79,59.34-51.57,89-77.37
			c0.66-0.57,1.26-1.2,2.3-2.19C468.34,128.45,320.94,128.45,173.55,128.45z M615.46,471.48c0.22-0.29,0.44-0.59,0.66-0.88
			c-0.77-0.46-1.63-0.81-2.3-1.39c-31.3-27.2-62.6-54.42-93.88-81.65c-26.13-22.74-52.27-45.48-78.35-68.29
			c-1.68-1.47-2.68-1.5-4.31,0.01c-4.02,3.74-8.22,7.29-12.37,10.9c-18.32,15.92-42.38,15.93-60.7,0.04
			c-4.09-3.55-8.3-6.96-12.23-10.68c-1.94-1.84-3.07-1.49-4.91,0.11c-39.23,34.21-78.51,68.36-117.78,102.51
			c-17.97,15.63-35.96,31.24-53.93,46.88c-0.76,0.66-1.42,1.43-2.42,2.45C320.82,471.48,468.14,471.48,615.46,471.48z
			 M329.44,300.02c-58.51-50.92-116.63-101.49-175.01-152.3c-2.02,4.48-2.55,8.62-2.55,12.89c0.02,38.49,0.02,76.99,0.01,115.48
			c-0.01,48.99-0.04,97.99-0.05,146.98c0,6.58-0.13,13.17,0.18,19.74c0.14,3.03,1.2,6.03,1.85,9.04c0.31,0.02,0.61,0.04,0.92,0.07
			C212.88,401.4,270.97,350.88,329.44,300.02z M459.56,299.98c58.52,50.93,116.6,101.48,174.96,152.26
			c0.46-0.99,0.88-1.53,0.97-2.12c0.58-3.85,1.55-7.71,1.56-11.57c0.12-47.58,0.1-95.16,0.11-142.74c0.01-39.25,0.01-78.49,0-117.74
			c0-6.92,0.04-13.83-0.13-20.75c-0.08-3.2-0.77-6.33-2.57-9.45C576.08,198.64,517.98,249.16,459.56,299.98z"/>
	</g>
</g>
</svg>
