<?xml version="1.0" encoding="UTF-8" standalone="no"?>
<!-- Generator: Adobe Illustrator 23.1.1, SVG Export Plug-In . SVG Version: 6.00 Build 0)  -->

<svg
   xmlns:dc="http://purl.org/dc/elements/1.1/"
   xmlns:cc="http://creativecommons.org/ns#"
   xmlns:rdf="http://www.w3.org/1999/02/22-rdf-syntax-ns#"
   xmlns:svg="http://www.w3.org/2000/svg"
   xmlns="http://www.w3.org/2000/svg"
   xmlns:sodipodi="http://sodipodi.sourceforge.net/DTD/sodipodi-0.dtd"
   xmlns:inkscape="http://www.inkscape.org/namespaces/inkscape"
   version="1.1"
   id="Layer_1"
   x="0px"
   y="0px"
   viewBox="0 0 599.99998 599.99999"
   xml:space="preserve"
   sodipodi:docname="fooddrink.svg"
   inkscape:version="0.92.4 (5da689c313, 2019-01-14)"
   width="600"
   height="600"><metadata
   id="metadata21"><rdf:RDF><cc:Work
       rdf:about=""><dc:format>image/svg+xml</dc:format><dc:type
         rdf:resource="http://purl.org/dc/dcmitype/StillImage" /></cc:Work></rdf:RDF></metadata><defs
   id="defs19" /><sodipodi:namedview
   pagecolor="#ffffff"
   bordercolor="#666666"
   borderopacity="1"
   objecttolerance="10"
   gridtolerance="10"
   guidetolerance="10"
   inkscape:pageopacity="0"
   inkscape:pageshadow="2"
   inkscape:window-width="716"
   inkscape:window-height="480"
   id="namedview17"
   showgrid="false"
   inkscape:zoom="0.33735386"
   inkscape:cx="330.84316"
   inkscape:cy="305.94259"
   inkscape:window-x="0"
   inkscape:window-y="0"
   inkscape:window-maximized="0"
   inkscape:current-layer="Layer_1" />
<g
   id="g14"
   transform="matrix(1.2707884,0,0,1.0985053,-532.71131,-175.46784)"
   style="opacity:1;fill:#ffffff;fill-opacity:1">
	<path
   d="m 655.46,466.56 c -8.44,-0.11 -15.25,-3.62 -20.64,-10.06 -10.47,-12.51 -20.94,-25.03 -31.44,-37.53 -25.76,-30.67 -51.52,-61.34 -77.3,-91.99 -14.06,-16.72 -28.24,-33.35 -42.16,-50.2 -2.34,-2.83 -4.09,-6.38 -5.24,-9.89 -2.1,-6.41 3.17,-12.64 10.92,-13.25 3.63,-0.28 7.29,-0.14 10.94,-0.14 83.67,-0.01 167.35,-0.02 251.02,0 22.17,0.01 44.33,0.11 66.5,0.2 1.74,0.01 3.57,0.04 5.2,0.56 8.88,2.84 11.71,9.81 6.37,17.69 -4.97,7.34 -10.89,14.06 -16.59,20.89 -14.59,17.49 -29.3,34.88 -43.96,52.32 -17.27,20.54 -34.54,41.08 -51.81,61.63 -13.88,16.52 -27.75,33.05 -41.63,49.57 -5.25,6.28 -11.65,10.34 -20.18,10.2 z m 162.47,-199.1 c -0.15,-0.38 -0.31,-0.76 -0.46,-1.14 -108.06,0 -216.12,0 -324.84,0 0.76,1.36 1.13,2.33 1.76,3.08 15.24,18.2 30.49,36.38 45.76,54.54 21.08,25.08 42.17,50.15 63.28,75.21 14.08,16.71 28.06,33.5 42.33,50.05 5.99,6.94 13.4,6.78 19.41,-0.14 9.27,-10.69 18.29,-21.6 27.41,-32.42 17.98,-21.35 35.96,-42.7 53.92,-64.06 18.75,-22.3 37.49,-44.6 56.22,-66.91 5.09,-6.06 10.14,-12.14 15.21,-18.21 z"
   id="path2"
   inkscape:connector-curvature="0"
   style="fill:#ffffff;fill-opacity:1" />
	<path
   d="m 665.04,472.62 c 0,1.98 0,3.43 0,4.87 -0.01,65.84 -0.02,131.68 -0.03,197.52 0,6.51 5.21,11.49 11.82,11.95 13.85,0.97 27.79,1.52 41.5,3.56 13.88,2.06 27.86,4.55 40.59,11.12 1.65,0.85 3.06,2.17 4.58,3.28 -0.17,0.34 -0.34,0.67 -0.51,1.01 -71.79,0 -143.58,0 -216.42,0 1.44,-1.53 2.17,-2.77 3.26,-3.4 8.26,-4.77 17.3,-7.5 26.6,-9.13 12.72,-2.24 25.5,-4.18 38.3,-5.85 5.87,-0.77 11.87,-0.87 17.8,-0.77 4.77,0.09 8.3,-2.18 11.51,-5.04 1.07,-0.96 1.46,-3.11 1.49,-4.73 0.15,-7.43 0.07,-14.87 0.07,-22.31 0,-59.21 0.01,-118.43 0.02,-177.64 0,-4.74 0.93,-5.14 5.53,-3.97 2.75,0.7 5.76,0.48 8.65,0.44 1.54,-0.01 3.08,-0.51 5.24,-0.91 z"
   id="path4"
   inkscape:connector-curvature="0"
   style="fill:#ffffff;fill-opacity:1" />
	<path
   d="m 758.13,246.5 c -2.15,-0.37 -4.3,-0.74 -6.45,-1.12 1.12,-2.06 2.08,-4.22 3.38,-6.16 13.85,-20.6 27.76,-41.16 41.66,-61.74 3.1,-4.58 6.12,-9.23 9.34,-13.72 3.2,-4.46 6.28,-5.11 10.27,-2.47 3.37,2.23 4.09,5.52 1.19,9.9 -6.54,9.89 -13.43,19.55 -20.21,29.28 -9.25,13.27 -18.83,26.33 -27.64,39.89 -3.06,4.71 -6.25,6.64 -11.54,6.14 z"
   id="path6"
   inkscape:connector-curvature="0"
   style="fill:#ffffff;fill-opacity:1" />
	<path
   d="m 708.08,310.14 c -3.25,4.87 -5.9,8.84 -8.54,12.82 -0.82,1.24 -1.47,2.62 -2.46,3.71 -2.07,2.27 -1.1,3.66 0.94,5.25 4.59,3.57 4.55,3.66 7.93,-1.11 3.81,-5.4 7.47,-10.9 11.43,-16.19 1,-1.33 2.89,-2.84 4.37,-2.84 14.99,-0.05 29.99,0.2 44.98,0.37 0.53,0.01 1.05,0.09 2,0.17 -0.46,0.85 -0.71,1.54 -1.15,2.07 -16.74,19.92 -33.48,39.84 -50.25,59.74 -16.42,19.49 -32.86,38.97 -49.29,58.44 -2.96,3.5 -5.85,7.06 -8.91,10.47 -2.77,3.08 -4.99,3.06 -7.7,-0.16 C 636.92,425.65 622.5,408.34 608,391.1 c -12.41,-14.76 -24.9,-29.45 -37.32,-44.2 -10.94,-13 -21.83,-26.04 -32.72,-39.09 -0.64,-0.77 -1.01,-1.77 -1.78,-3.15 5.3,-1.16 10.06,-2.37 14.9,-3.13 1.1,-0.17 2.8,0.98 3.64,2 10.16,12.42 20.21,24.93 30.28,37.41 4.79,5.93 9.56,11.88 14.35,17.81 0.38,-0.25 0.75,-0.5 1.13,-0.75 -5.88,-9.6 -11.8,-19.18 -17.62,-28.82 -5.84,-9.67 -11.59,-19.4 -17.64,-29.54 17.11,-2.18 33.08,-3 49.12,-1.27 13.13,1.41 26.31,2.45 39.41,4.1 12.95,1.62 25.82,3.83 38.74,5.71 4.86,0.73 9.75,1.24 15.59,1.96 z m -30.52,24.36 c -14.13,-0.57 -24.96,10.7 -24.78,24.24 0.18,13.88 9.94,24.01 24.07,24.26 12.86,0.23 24.48,-9.49 24.46,-24.17 -0.02,-13.66 -10.25,-24.26 -23.75,-24.33 z m -30.23,72.66 c 0.32,0.22 0.65,0.44 0.97,0.65 4.99,-6.01 9.98,-12.02 15.47,-18.63 -2.69,-0.86 -4.38,-1.4 -6.14,-1.97 -3.55,6.89 -6.93,13.42 -10.3,19.95 z"
   id="path8"
   inkscape:connector-curvature="0"
   style="fill:#ffffff;fill-opacity:1" />
	<path
   d="m 712.66,303.93 c 1.06,-2.26 1.51,-3.63 2.28,-4.79 5.3,-7.94 10.64,-15.86 16.04,-23.73 0.63,-0.92 1.72,-2.08 2.65,-2.13 3.99,-0.24 8,-0.1 13.06,-0.1 -2.87,4.2 -5.15,7.58 -7.48,10.93 -3.76,5.42 -7.71,10.73 -11.28,16.28 -1.83,2.86 -3.93,4.05 -7.31,3.6 -2.31,-0.31 -4.71,-0.06 -7.96,-0.06 z"
   id="path10"
   inkscape:connector-curvature="0"
   style="fill:#ffffff;fill-opacity:1" />
	<path
   d="m 667.97,343.18 c 2.07,2.89 4.34,4.66 4.21,6.24 -0.14,1.66 -2.56,3.14 -3.98,4.7 -1.56,-1.43 -4.29,-2.8 -4.37,-4.3 -0.09,-1.77 2.14,-3.64 4.14,-6.64 z"
   id="path12"
   inkscape:connector-curvature="0"
   style="fill:#ffffff;fill-opacity:1" />
</g>
</svg>