<?xml version="1.0" encoding="UTF-8" standalone="no"?>
<!-- Generator: Adobe Illustrator 23.1.1, SVG Export Plug-In . SVG Version: 6.00 Build 0)  -->

<svg
   xmlns:dc="http://purl.org/dc/elements/1.1/"
   xmlns:cc="http://creativecommons.org/ns#"
   xmlns:rdf="http://www.w3.org/1999/02/22-rdf-syntax-ns#"
   xmlns:svg="http://www.w3.org/2000/svg"
   xmlns="http://www.w3.org/2000/svg"
   xmlns:sodipodi="http://sodipodi.sourceforge.net/DTD/sodipodi-0.dtd"
   xmlns:inkscape="http://www.inkscape.org/namespaces/inkscape"
   version="1.1"
   id="Layer_1"
   x="0px"
   y="0px"
   viewBox="0 0 599.99998 599.99999"
   xml:space="preserve"
   sodipodi:docname="manager.svg"
   inkscape:version="0.92.4 (5da689c313, 2019-01-14)"
   width="600"
   height="600"><metadata
   id="metadata13"><rdf:RDF><cc:Work
       rdf:about=""><dc:format>image/svg+xml</dc:format><dc:type
         rdf:resource="http://purl.org/dc/dcmitype/StillImage" /></cc:Work></rdf:RDF></metadata><defs
   id="defs11" /><sodipodi:namedview
   pagecolor="#ffffff"
   bordercolor="#666666"
   borderopacity="1"
   objecttolerance="10"
   gridtolerance="10"
   guidetolerance="10"
   inkscape:pageopacity="0"
   inkscape:pageshadow="2"
   inkscape:window-width="716"
   inkscape:window-height="480"
   id="namedview9"
   showgrid="false"
   inkscape:zoom="0.2385452"
   inkscape:cx="589.73823"
   inkscape:cy="35.174196"
   inkscape:window-x="0"
   inkscape:window-y="0"
   inkscape:window-maximized="0"
   inkscape:current-layer="Layer_1" />
<style
   type="text/css"
   id="style2">
	.st0{fill:#020202;}
</style>
<g
   id="g6"
   transform="matrix(1.0835106,0,0,1.1139123,-411.63168,-165.25775)"
   style="fill:#ffffff;fill-opacity:1">
	<path
   class="st0"
   d="m 887.49,456.02 c 0,67.19 0,134.39 -0.01,201.58 0,16.89 -12.55,29.34 -29.55,29.34 -132.88,0 -265.77,-0.02 -398.65,0.06 -7.19,0 -14.1,-0.64 -20.17,-4.75 -8.21,-5.57 -13.02,-13.29 -13.02,-23.37 -0.05,-134.98 -0.04,-269.97 -0.03,-404.95 0,-16.04 12.58,-28.41 29.13,-28.56 16.05,-0.14 32.11,-0.09 48.16,0 2.42,0.01 3.59,-0.78 4.68,-2.98 11.32,-22.88 22.76,-45.71 34.24,-68.51 1.9,-3.77 5.18,-5.52 9.45,-5.52 17.84,0.03 35.67,0.02 53.51,0.02 32.7,0 65.4,0 98.1,0 19.52,0 39.04,-0.03 58.56,-0.02 4.48,0 7.7,2.05 9.71,6.1 7.41,14.88 14.86,29.74 22.28,44.62 3.97,7.97 7.95,15.94 11.79,23.97 0.92,1.93 2.07,2.43 4.13,2.43 17.63,0.02 35.28,-0.16 52.89,0.42 12.75,0.41 24.59,13.15 24.7,26.17 0.22,24.68 0.08,49.35 0.09,74.03 0,16.05 0,32.1 0,48.15 0.01,27.26 0.01,54.51 0.01,81.77 z M 703.18,320.35 c -1.96,7.66 -3.88,14.61 -5.48,21.63 -0.81,3.58 -2.54,7 -1.2,10.99 2.22,6.65 3.94,13.47 5.96,20.18 5.14,17.04 10.37,34.06 15.49,51.11 7.79,25.95 15.52,51.91 23.27,77.87 3.54,11.85 6.84,23.78 10.71,35.52 1.71,5.2 0.76,9.15 -2.77,13.03 -11.51,12.68 -22.93,25.44 -34.38,38.18 -10.26,11.42 -20.48,22.86 -30.75,34.27 -6.82,7.58 -13.64,15.15 -20.54,22.65 -3.4,3.69 -10,3.72 -13.38,0.03 -8.81,-9.64 -17.53,-19.37 -26.28,-29.07 -9.42,-10.45 -18.82,-20.9 -28.23,-31.36 -10.79,-11.99 -21.61,-23.97 -32.36,-36 -2.46,-2.75 -3.36,-6.03 -2.26,-9.68 2.76,-9.19 5.55,-18.36 8.31,-27.55 5.25,-17.42 10.51,-34.83 15.72,-52.26 5.16,-17.25 10.24,-34.53 15.39,-51.78 5.58,-18.66 11.22,-37.31 16.75,-55.98 0.4,-1.34 0.38,-2.95 0.06,-4.32 -1.78,-7.51 -3.71,-14.98 -5.61,-22.46 -0.37,-1.47 -0.79,-2.93 -1.19,-4.39 -0.3,-0.11 -0.59,-0.23 -0.89,-0.34 -0.22,0.46 -0.35,0.99 -0.68,1.36 -10.46,11.61 -20.85,23.29 -31.51,34.72 -1.58,1.69 -4.31,2.82 -6.66,3.16 -5.11,0.74 -7.97,-2.65 -10.05,-6.79 -5.82,-11.59 -11.69,-23.15 -17.39,-34.79 -11.58,-23.64 -23.08,-47.32 -34.55,-71.02 -0.96,-1.99 -2.24,-2.71 -4.4,-2.7 -16.05,0.07 -32.1,0.21 -48.15,-0.02 -5.85,-0.08 -10.96,4.51 -10.87,10.99 0.28,20 0.08,40.01 0.08,60.02 -0.01,85.93 -0.02,171.87 -0.01,257.8 0,27.95 0,55.9 0.05,83.85 0.01,6.64 3.73,10.29 10.34,10.29 42.11,0 84.23,-0.02 126.34,-0.03 51.33,-0.01 102.67,-0.01 154,-0.01 40.33,0 80.67,0.01 121,0.01 7.6,0 11.08,-3.5 11.07,-11.07 -0.01,-32.91 -0.04,-65.81 -0.05,-98.72 0,-14.47 0.01,-28.93 0.08,-43.4 0,-1 0.54,-2 1.05,-3.72 -0.28,-1.96 -1.04,-4.78 -1.03,-7.6 0.19,-82.56 0.45,-165.12 0.71,-247.68 0.02,-5.39 -4.58,-10.55 -10.08,-10.6 -16.65,-0.14 -33.29,-0.07 -49.94,0.04 -0.93,0.01 -2.22,0.84 -2.72,1.66 -1.45,2.35 -2.61,4.88 -3.85,7.36 -7.37,14.77 -14.73,29.55 -22.09,44.33 -6.96,14 -13.88,28.02 -20.89,42 -2.75,5.47 -5.44,11.01 -8.64,16.21 -2.88,4.68 -10.3,5.16 -14.03,1.16 -5.4,-5.78 -10.62,-11.73 -15.92,-17.61 -5.66,-6.31 -11.36,-12.61 -17.55,-19.47 z M 759.5,173.93 c -29.89,27.19 -59.4,54.02 -89.05,80.99 23.37,25.98 46.36,51.53 69.71,77.49 1.92,-2.88 3.81,-5.19 5.13,-7.79 6.96,-13.66 13.66,-27.46 20.69,-41.08 7.78,-15.11 15.85,-30.07 23.68,-45.15 0.56,-1.07 0.6,-2.89 0.08,-3.97 -7.49,-15.28 -15.11,-30.49 -22.72,-45.71 -2.39,-4.77 -4.82,-9.49 -7.52,-14.78 z m -205.29,0.15 c -0.68,1.01 -1.05,1.47 -1.31,1.98 -9.58,18.99 -19.16,37.97 -28.66,56.99 -0.46,0.92 -0.57,2.42 -0.14,3.31 4.51,9.25 9.16,18.44 13.77,27.64 8.78,17.52 17.55,35.04 26.34,52.55 2.69,5.35 5.41,10.69 8.45,16.66 23.59,-26.21 46.89,-52.11 70.46,-78.31 -29.7,-26.97 -59.17,-53.77 -88.91,-80.82 z m 23.21,-6.12 c -0.14,0.27 -0.28,0.53 -0.43,0.8 1.92,1.78 3.83,3.58 5.77,5.33 9.19,8.27 18.41,16.5 27.58,24.8 14.75,13.35 29.48,26.72 44.17,40.14 1.64,1.5 2.74,1.64 4.45,0.07 10.78,-9.9 21.65,-19.71 32.5,-29.53 13.2,-11.96 26.41,-23.91 39.59,-35.88 1.83,-1.66 3.55,-3.45 5.88,-5.72 -53.77,-0.01 -106.64,-0.01 -159.51,-0.01 z m 127.23,279.99 c -4.12,1.97 -7.8,3.66 -11.41,5.47 -21.21,10.64 -42.4,21.32 -63.61,31.97 -11.84,5.95 -23.7,11.83 -35.51,17.83 -1.04,0.53 -2.22,1.54 -2.55,2.57 -3.44,10.93 -6.81,21.89 -9.91,32.92 -0.32,1.16 0.99,3.04 2,4.18 0.45,0.51 2.19,0.35 3.06,-0.07 5.16,-2.51 10.2,-5.25 15.34,-7.8 14.16,-7.04 28.36,-13.99 42.51,-21.05 22.3,-11.12 44.54,-22.33 66.87,-33.39 2.17,-1.08 2.6,-2.21 1.91,-4.38 -1.97,-6.22 -3.78,-12.49 -5.68,-18.73 -0.96,-3.1 -1.97,-6.18 -3.02,-9.52 z m 14.44,50.34 c -1.31,0.63 -2.21,1.04 -3.09,1.48 -21.22,10.65 -42.42,21.33 -63.65,31.95 -17.25,8.63 -34.52,17.21 -51.82,25.74 -2.06,1.02 -2.53,1.74 -0.82,3.6 6.45,6.98 12.74,14.11 19.22,21.06 0.62,0.66 2.36,1.02 3.16,0.64 7.59,-3.61 15.09,-7.4 22.6,-11.16 20.95,-10.5 41.89,-21.02 62.84,-31.52 6.37,-3.19 12.76,-6.34 19.12,-9.52 1.25,-0.62 2.49,-1.22 1.92,-3.11 -2.74,-9.09 -5.4,-18.21 -8.14,-27.29 -0.21,-0.71 -0.9,-1.28 -1.34,-1.87 z M 656.65,340.64 c 0,0.02 0,0.03 0,0.05 6.34,0 12.68,-0.03 19.02,0.02 1.57,0.01 2.58,-0.35 3,-2.09 2.69,-11.15 5.51,-22.27 8.13,-33.44 0.27,-1.15 -0.02,-2.89 -0.76,-3.75 -4.69,-5.49 -9.61,-10.78 -14.4,-16.19 -1.44,-1.63 -3.09,-2.18 -5.24,-2.14 -6.14,0.11 -12.29,0.19 -18.42,-0.03 -2.98,-0.11 -5.08,0.88 -6.97,3.05 -4.22,4.85 -8.47,9.67 -12.88,14.34 -1.68,1.77 -1.86,3.5 -1.31,5.67 2.66,10.55 5.29,21.1 7.83,31.68 0.49,2.03 1.25,2.97 3.57,2.91 6.14,-0.2 12.29,-0.08 18.43,-0.08 z m -40.04,81.13 c 1.09,-0.32 1.58,-0.38 2.01,-0.59 21.83,-10.73 43.64,-21.5 65.51,-32.15 2.15,-1.05 2.33,-2.35 1.75,-4.28 -2.22,-7.28 -4.52,-14.54 -6.55,-21.87 -0.62,-2.24 -1.57,-2.96 -3.85,-2.94 -12.48,0.1 -24.96,0.1 -37.44,0.01 -2.12,-0.01 -3.1,0.59 -3.73,2.75 -4.2,14.43 -8.57,28.81 -12.89,43.2 -1.54,5.09 -3.09,10.17 -4.81,15.87 z m -16.64,56.35 c 1.36,-0.49 2.32,-0.73 3.18,-1.16 9.91,-4.92 19.82,-9.87 29.71,-14.83 21.11,-10.58 42.19,-21.2 63.34,-31.69 2.31,-1.15 2.68,-2.41 1.97,-4.63 -1.74,-5.45 -3.42,-10.93 -4.99,-16.43 -0.89,-3.11 -1.07,-3.35 -3.95,-1.92 -9.64,4.8 -19.25,9.69 -28.89,14.51 -16.36,8.18 -32.75,16.29 -49.05,24.56 -1.3,0.66 -2.56,2.2 -3.03,3.6 -2.77,8.35 -5.31,16.77 -7.89,25.18 -0.24,0.79 -0.24,1.64 -0.4,2.81 z m 56.85,146.13 c 19.93,-22.15 39.53,-43.93 59.12,-65.71 -0.94,-0.41 -1.5,-0.34 -1.97,-0.09 -4.57,2.35 -9.1,4.78 -13.69,7.08 -21.42,10.69 -42.84,21.36 -64.3,31.97 -1.98,0.98 -1.97,1.75 -0.58,3.24 3.91,4.2 7.72,8.49 11.58,12.74 3.17,3.48 6.36,6.96 9.84,10.77 z"
   id="path4"
   inkscape:connector-curvature="0"
   style="fill:#ffffff;fill-opacity:1" />
</g>
</svg>