<?xml version="1.0" encoding="UTF-8" standalone="no"?>
<!-- Generator: Adobe Illustrator 23.1.1, SVG Export Plug-In . SVG Version: 6.00 Build 0)  -->

<svg
   xmlns:dc="http://purl.org/dc/elements/1.1/"
   xmlns:cc="http://creativecommons.org/ns#"
   xmlns:rdf="http://www.w3.org/1999/02/22-rdf-syntax-ns#"
   xmlns:svg="http://www.w3.org/2000/svg"
   xmlns="http://www.w3.org/2000/svg"
   xmlns:sodipodi="http://sodipodi.sourceforge.net/DTD/sodipodi-0.dtd"
   xmlns:inkscape="http://www.inkscape.org/namespaces/inkscape"
   version="1.1"
   id="Layer_1"
   x="0px"
   y="0px"
   viewBox="0 0 599.99998 599.99999"
   xml:space="preserve"
   sodipodi:docname="other work.svg"
   inkscape:version="0.92.4 (5da689c313, 2019-01-14)"
   width="600"
   height="600"><metadata
   id="metadata15"><rdf:RDF><cc:Work
       rdf:about=""><dc:format>image/svg+xml</dc:format><dc:type
         rdf:resource="http://purl.org/dc/dcmitype/StillImage" /></cc:Work></rdf:RDF></metadata><defs
   id="defs13" /><sodipodi:namedview
   pagecolor="#ffffff"
   bordercolor="#666666"
   borderopacity="1"
   objecttolerance="10"
   gridtolerance="10"
   guidetolerance="10"
   inkscape:pageopacity="0"
   inkscape:pageshadow="2"
   inkscape:window-width="716"
   inkscape:window-height="480"
   id="namedview11"
   showgrid="false"
   inkscape:zoom="0.042169232"
   inkscape:cx="66.856692"
   inkscape:cy="2971.1158"
   inkscape:window-x="0"
   inkscape:window-y="0"
   inkscape:window-maximized="0"
   inkscape:current-layer="Layer_1" />
<g
   id="g8"
   transform="matrix(1.3045097,0,0,1.1645395,-541.64207,-196.18917)"
   style="fill:#ffffff;fill-opacity:1">
	<path
   d="m 642.95,499.95 c -15.96,-0.34 -44.3,-0.72 -72.62,-1.64 -15.68,-0.51 -31.34,-1.78 -46.99,-2.98 -13.45,-1.04 -26.89,-2.23 -40.28,-3.81 -11.96,-1.42 -23.87,-3.3 -35.75,-5.28 -8.1,-1.35 -16.12,-3.15 -24.15,-4.87 -5.15,-1.1 -7.87,-4.49 -7.89,-9.76 -0.05,-12.16 -0.16,-24.33 0.13,-36.49 0.06,-2.31 1.4,-5.01 2.98,-6.79 4.25,-4.78 9.03,-9.09 13.42,-13.75 0.99,-1.05 1.75,-2.76 1.82,-4.2 2.87,-64.85 29.19,-117.94 79.54,-158.98 14.09,-11.49 29.63,-20.64 46.3,-27.87 2.08,-0.9 2.95,-2.04 2.97,-4.46 0.12,-18.24 14.01,-32.07 32.22,-32.17 12.73,-0.07 25.47,-0.07 38.2,0.03 2.35,0.02 3.31,-0.61 3.08,-3.05 -0.19,-1.99 -0.1,-4.02 -0.06,-6.03 0.11,-5.38 3.97,-9.31 9.16,-9.38 5.38,-0.06 9.31,3.8 9.46,9.35 0.06,2.11 0.17,4.23 0,6.32 -0.18,2.18 0.6,2.79 2.74,2.78 12.45,-0.1 24.89,-0.02 37.34,-0.08 14.01,-0.06 24.32,6.16 30.36,18.67 1.92,3.99 2.49,8.77 2.96,13.27 0.27,2.59 1.06,3.87 3.34,4.86 14.27,6.17 27.62,13.98 40.12,23.22 26.45,19.56 47.22,43.96 62.29,73.21 9.08,17.61 15.66,36.15 19.16,55.61 2.05,11.35 2.58,22.98 3.94,34.46 0.18,1.55 0.86,3.33 1.9,4.44 4.37,4.68 8.97,9.16 13.49,13.7 2.06,2.07 3.04,4.49 3.02,7.47 -0.07,11.88 -0.01,23.75 -0.04,35.63 -0.02,5.46 -2.74,8.7 -7.98,9.99 -17.76,4.37 -35.82,7.01 -53.94,9.32 -52.4,6.67 -105.08,8.71 -170.24,9.26 z m -80.61,-257 c -1.32,0.5 -1.98,0.65 -2.53,0.97 -8.72,5.14 -17.81,9.75 -26.06,15.57 -33.87,23.87 -57.6,55.54 -71.12,94.75 -6.88,19.97 -10.07,40.61 -10.32,61.7 -0.04,3.41 -1.17,6.08 -3.56,8.42 -4.44,4.35 -8.85,8.75 -13.15,13.23 -0.84,0.88 -1.63,2.24 -1.66,3.4 -0.15,7.08 -0.05,14.17 -0.1,21.26 -0.01,1.71 0.53,2.56 2.37,2.86 7.27,1.16 14.48,2.7 21.77,3.69 16.96,2.3 33.91,4.87 50.95,6.4 21.63,1.95 43.33,3.39 65.03,4.33 36.83,1.6 73.69,2.3 110.56,1.01 20.95,-0.73 41.89,-1.7 62.83,-2.76 10.03,-0.51 20.05,-1.38 30.05,-2.31 12.19,-1.14 24.4,-2.19 36.52,-3.86 13.34,-1.84 26.59,-4.38 39.9,-6.49 2.08,-0.33 2.71,-1.18 2.69,-3.17 -0.08,-6.89 0.05,-13.79 -0.11,-20.68 -0.03,-1.26 -0.77,-2.76 -1.66,-3.69 -4.29,-4.5 -8.71,-8.88 -13.15,-13.23 -2.3,-2.26 -3.5,-4.82 -3.52,-8.14 -0.12,-15.94 -2.01,-31.71 -5.94,-47.15 -4.21,-16.55 -10.47,-32.32 -18.94,-47.2 -19.59,-34.44 -47.22,-60.31 -82.66,-77.89 -0.62,-0.31 -1.34,-0.43 -2.46,-0.79 0,1.46 0,2.48 0,3.51 -0.01,13.89 0,27.77 -0.06,41.66 -0.02,5.32 -4.05,9.15 -9.35,9.1 -5.49,-0.05 -9.26,-4.03 -9.27,-9.83 -0.02,-22.41 0.01,-44.82 -0.02,-67.23 -0.01,-9.09 -5.83,-14.84 -14.95,-14.86 -12.16,-0.03 -24.32,0.07 -36.48,-0.07 -2.78,-0.03 -3.53,0.84 -3.51,3.57 0.11,20.78 0.08,41.56 0.08,62.35 0,11.78 0.04,23.56 -0.06,35.34 -0.06,7.02 -7.24,11.28 -13.49,8.15 -3.78,-1.89 -5.11,-5.08 -5.11,-9.17 0.04,-32.37 0,-64.74 0.06,-97.11 0,-2.32 -0.54,-3.12 -3.01,-3.1 -12.06,0.12 -24.13,0.03 -36.19,0.04 -10.26,0.01 -15.76,5.52 -15.76,15.8 -0.01,21.84 0.01,43.67 -0.03,65.51 0,1.6 -0.08,3.31 -0.65,4.77 -1.74,4.44 -6.01,6.62 -10.67,5.73 -4.29,-0.82 -7.24,-4.55 -7.25,-9.39 -0.04,-13.12 -0.02,-26.24 -0.02,-39.36 0.01,-1.72 0.01,-3.4 0.01,-5.64 z"
   id="path2"
   inkscape:connector-curvature="0"
   style="fill:#ffffff;fill-opacity:1" />
	<path
   d="m 875.13,591.48 c 0,9 0.02,18.01 -0.01,27.01 -0.02,6.28 -3.7,9.95 -9.98,9.98 -8.14,0.03 -16.28,0.08 -24.42,-0.03 -2.39,-0.03 -3.18,0.74 -3.65,3.15 -3.33,17.03 -12.29,30.53 -26.4,40.54 -10.92,7.75 -23.19,11.55 -36.59,11.56 -15.32,0.01 -30.64,0 -45.96,0 -22.74,0.01 -39.83,-10.6 -52.87,-28.46 -10.31,-14.12 -16.62,-30.02 -19.89,-47.16 -0.47,-2.44 -0.84,-4.9 -1.08,-7.37 -0.5,-5.1 -4.41,-9 -9.14,-8.97 -4.89,0.03 -8.35,4.02 -9.08,9.33 -3.51,25.3 -12.7,48.06 -31.45,66 -11.73,11.23 -26.04,16.74 -42.44,16.61 -15.61,-0.11 -31.22,0.06 -46.83,-0.05 -27.11,-0.2 -51.57,-18.22 -59.96,-44.09 -0.88,-2.72 -1.7,-5.49 -2.12,-8.31 -0.34,-2.25 -1.36,-2.79 -3.42,-2.77 -8.14,0.08 -16.28,0.05 -24.42,0.02 -6.55,-0.02 -10.15,-3.57 -10.15,-10.06 -0.02,-18.01 -0.02,-36.01 0,-54.02 0.01,-6.02 3.64,-9.67 9.61,-9.69 8.43,-0.03 16.85,-0.05 25.28,0.02 1.88,0.02 2.76,-0.4 3.31,-2.48 5.39,-20.42 23.41,-34.29 44.51,-34.31 68.66,-0.03 137.32,-0.02 205.97,-0.02 29.49,0 58.99,0.14 88.48,-0.04 19.78,-0.12 38.78,13.3 44.52,34.4 0.57,2.11 1.48,2.46 3.32,2.44 8.33,-0.06 16.66,-0.05 24.99,-0.01 6.17,0.02 9.84,3.65 9.86,9.77 0.04,9 0.01,18.01 0.01,27.01 z M 645.22,536.53 c -9.1,0 -18.19,0 -27.29,0 -39.83,0 -79.67,-0.04 -119.5,0.07 -3.19,0.01 -6.54,0.6 -9.52,1.72 -11.57,4.33 -18.22,14.16 -18.24,26.53 -0.03,17.81 -0.12,35.63 0.12,53.44 0.06,4.63 0.78,9.37 2.01,13.83 5.09,18.49 22.53,32.35 41.55,32.75 16.46,0.35 32.94,0.24 49.41,0.01 11.06,-0.16 20.66,-4.37 28.68,-12.02 12.35,-11.8 18.58,-26.9 22.8,-42.99 1.45,-5.52 2.03,-11.27 3.41,-16.82 2.73,-11 13.93,-21.3 29.79,-19.93 11.66,1.01 22.91,11.64 24.3,23.67 1.54,13.27 5.63,25.72 11.71,37.54 10.54,20.51 26.38,32.1 50.48,30.82 12.89,-0.68 25.85,-0.04 38.77,-0.2 3.61,-0.04 7.29,-0.45 10.81,-1.26 20.18,-4.65 35.14,-23.43 35.24,-44.17 0.09,-18.29 0.11,-36.59 -0.04,-54.88 -0.03,-3.29 -0.59,-6.74 -1.72,-9.81 -4.28,-11.57 -14.17,-18.28 -26.51,-18.29 -48.78,-0.03 -97.52,-0.01 -146.26,-0.01 z m -193.19,55.16 c 0,-5.36 -0.05,-10.71 0.03,-16.07 0.02,-1.72 -0.52,-2.37 -2.31,-2.33 -4.49,0.1 -8.99,0.1 -13.48,-0.02 -1.94,-0.05 -2.43,0.71 -2.42,2.53 0.07,10.52 0.09,21.04 0.03,31.56 -0.01,1.85 0.57,2.53 2.46,2.49 4.4,-0.1 8.8,-0.11 13.19,0.04 2.12,0.07 2.57,-0.82 2.53,-2.71 -0.09,-5.16 -0.03,-10.33 -0.03,-15.49 z m 404.49,-0.06 c -0.01,0 -0.02,0 -0.02,0 0,-5.26 -0.06,-10.52 0.03,-15.78 0.03,-1.78 -0.36,-2.63 -2.35,-2.58 -4.4,0.12 -8.8,0.11 -13.2,0.01 -1.98,-0.05 -2.66,0.65 -2.64,2.64 0.07,10.52 0.07,21.04 -0.01,31.57 -0.01,1.96 0.76,2.44 2.55,2.4 4.4,-0.09 8.8,-0.1 13.2,0 1.87,0.04 2.51,-0.6 2.48,-2.47 -0.1,-5.27 -0.04,-10.53 -0.04,-15.79 z"
   id="path4"
   inkscape:connector-curvature="0"
   style="fill:#ffffff;fill-opacity:1" />
	<path
   d="m 645.23,426.22 c -47.77,0 -95.54,0.01 -143.31,-0.02 -2.37,0 -4.88,0.09 -7.08,-0.63 -4.48,-1.47 -6.72,-5.83 -5.96,-10.52 0.69,-4.21 4.58,-7.48 9.22,-7.49 16.47,-0.04 32.93,-0.01 49.4,-0.01 51.89,0 103.77,-0.01 155.66,0 29.29,0 58.59,0.01 87.88,0.03 6.58,0 10.56,3.58 10.53,9.39 -0.03,5.65 -4.04,9.21 -10.45,9.22 -40.69,0.01 -81.37,0.01 -122.06,0.01 -7.95,0 -15.89,0 -23.84,0 0.01,-0.01 0.01,0.01 0.01,0.02 z"
   id="path6"
   inkscape:connector-curvature="0"
   style="fill:#ffffff;fill-opacity:1" />
</g>
</svg>