<?xml version="1.0" encoding="UTF-8" standalone="no"?>
<!-- Generator: Adobe Illustrator 23.1.1, SVG Export Plug-In . SVG Version: 6.00 Build 0)  -->

<svg
   xmlns:dc="http://purl.org/dc/elements/1.1/"
   xmlns:cc="http://creativecommons.org/ns#"
   xmlns:rdf="http://www.w3.org/1999/02/22-rdf-syntax-ns#"
   xmlns:svg="http://www.w3.org/2000/svg"
   xmlns="http://www.w3.org/2000/svg"
   xmlns:sodipodi="http://sodipodi.sourceforge.net/DTD/sodipodi-0.dtd"
   xmlns:inkscape="http://www.inkscape.org/namespaces/inkscape"
   version="1.1"
   id="Layer_1"
   x="0px"
   y="0px"
   viewBox="0 0 599.99998 599.99999"
   xml:space="preserve"
   sodipodi:docname="set up .svg"
   width="600"
   height="600"
   inkscape:version="0.92.4 (5da689c313, 2019-01-14)"><metadata
   id="metadata21"><rdf:RDF><cc:Work
       rdf:about=""><dc:format>image/svg+xml</dc:format><dc:type
         rdf:resource="http://purl.org/dc/dcmitype/StillImage" /></cc:Work></rdf:RDF></metadata><defs
   id="defs19" /><sodipodi:namedview
   pagecolor="#ffffff"
   bordercolor="#666666"
   borderopacity="1"
   objecttolerance="10"
   gridtolerance="10"
   guidetolerance="10"
   inkscape:pageopacity="0"
   inkscape:pageshadow="2"
   inkscape:window-width="716"
   inkscape:window-height="480"
   id="namedview17"
   showgrid="false"
   inkscape:zoom="0.16867693"
   inkscape:cx="332.64893"
   inkscape:cy="281.57591"
   inkscape:window-x="0"
   inkscape:window-y="0"
   inkscape:window-maximized="0"
   inkscape:current-layer="Layer_1" />
<g
   id="g14"
   transform="matrix(1.1188992,0,0,1.1174507,-339.48109,-163.88319)"
   style="fill:#ffffff;fill-opacity:1">
	<path
   d="m 475.51,589.78 c -6.23,-0.51 -11.89,-0.83 -17.52,-1.47 -4.25,-0.48 -6.63,-2.84 -7.73,-7.28 -2.86,-11.56 -6.11,-23.04 -9.49,-34.46 -0.61,-2.05 -2.22,-4.51 -4.04,-5.37 -6.38,-3 -13.17,-5.11 -19.55,-8.08 -3.85,-1.79 -6.9,-1 -10.23,0.89 -10.2,5.77 -20.52,11.32 -30.63,17.23 -3.37,1.97 -6.09,1.87 -8.77,-0.71 -9.03,-8.71 -18.06,-17.42 -27.01,-26.21 -3.13,-3.08 -2.5,-6.5 -0.47,-9.99 6.11,-10.48 12.3,-20.92 18.07,-31.58 1.11,-2.05 1.12,-5.24 0.46,-7.58 -1.2,-4.25 -3.99,-8.1 -4.87,-12.37 -2.03,-9.93 -9.24,-12.69 -17.72,-14.66 -8.84,-2.06 -17.67,-4.35 -26.21,-7.35 -2.62,-0.92 -6.01,-4.44 -6.11,-6.89 -0.51,-12.73 -0.24,-25.5 0.09,-38.25 0.19,-7.09 6.88,-6.83 11.23,-8.21 9.61,-3.06 19.6,-4.94 29.28,-7.81 2.47,-0.74 5.03,-3.02 6.38,-5.29 2.25,-3.78 3.07,-8.41 5.35,-12.17 4.66,-7.68 2.94,-14.29 -1.57,-21.32 -5.23,-8.16 -9.67,-16.81 -14.55,-25.2 -2.09,-3.6 -2.19,-7.02 0.83,-9.99 8.8,-8.66 17.68,-17.23 26.61,-25.76 2.76,-2.63 5.63,-3.13 9.31,-0.94 9.54,5.69 19.51,10.66 28.94,16.52 4.67,2.9 8.77,3.21 13.59,1.03 5.69,-2.57 11.48,-4.96 17.33,-7.18 5.9,-2.24 4.87,-8.05 6.25,-12.33 3.1,-9.59 4.97,-19.58 8.1,-29.16 0.8,-2.45 4.36,-5.51 6.8,-5.66 12.12,-0.71 24.29,-0.9 36.43,-0.56 8.26,0.23 8.21,8.03 9.89,13.45 2.99,9.63 4.97,19.57 7.82,29.25 0.61,2.06 2.8,4.24 4.82,5.2 6.17,2.95 12.8,4.98 18.89,8.09 3.43,1.75 5.74,1.46 8.87,-0.42 10.4,-6.23 21.09,-11.98 31.47,-18.23 3.43,-2.07 6.11,-1.81 8.73,0.73 9.14,8.88 18.4,17.64 27.09,26.93 1.58,1.69 1.87,6.32 0.72,8.52 -5.7,10.92 -12.27,21.4 -18.08,32.27 -1.15,2.15 -1.11,5.6 -0.31,8.02 2.15,6.5 4.74,12.9 7.72,19.06 1.04,2.15 3.45,4.4 5.69,5.07 11.8,3.52 23.81,6.32 35.57,9.96 2.17,0.67 4.92,3.96 5,6.13 0.47,12.95 0.24,25.92 0.23,38.88 0,3.83 -1.89,5.63 -5.7,6.57 -11.76,2.9 -23.46,6.05 -35.07,9.52 -2.25,0.67 -4.71,2.85 -5.75,4.98 -3.17,6.52 -5.91,13.28 -8.35,20.11 -0.68,1.9 -0.44,4.74 0.54,6.52 5.93,10.81 12.06,21.51 18.4,32.09 2.23,3.73 2.28,6.82 -0.78,9.84 -8.92,8.8 -17.86,17.6 -26.86,26.32 -2.59,2.51 -5.25,2.92 -8.72,0.82 -10.19,-6.18 -20.69,-11.84 -30.92,-17.96 -3.43,-2.05 -6.09,-2.63 -9.98,-0.53 -5.83,3.15 -12.38,4.94 -18.34,7.89 -2.13,1.05 -4.3,3.52 -4.98,5.79 -3.43,11.41 -6.56,22.92 -9.39,34.49 -1.11,4.54 -3.74,6.53 -7.96,6.98 -6.43,0.71 -12.89,1.26 -18.84,1.82 z M 375.38,350.99 c -0.55,1.23 -0.97,2.13 -1.36,3.05 -3.96,9.28 -8.05,18.52 -11.82,27.88 -1.75,4.34 -3.82,7.58 -8.92,8.78 -10.81,2.55 -21.42,5.91 -32.22,8.52 -3.42,0.83 -4.92,2.26 -4.9,5.65 0.05,6.9 0.06,13.8 0,20.7 -0.03,3.47 1.64,4.71 4.99,5.54 11.38,2.8 22.7,5.89 33.89,9.34 2.27,0.7 4.67,3.11 5.71,5.34 4.49,9.7 8.71,19.55 12.54,29.53 0.9,2.34 0.79,5.9 -0.4,8.06 -5.75,10.45 -12.19,20.53 -17.96,30.97 -0.92,1.66 -0.54,5.2 0.68,6.66 4.15,4.97 9.03,9.31 13.46,14.06 2.76,2.95 5.06,3.56 8.87,1.16 10.09,-6.35 20.47,-12.26 30.93,-17.99 1.89,-1.03 5,-1.13 7.05,-0.35 9.05,3.46 17.77,7.81 26.89,11.03 6.28,2.21 8.72,6.69 10.18,12.41 2.49,9.8 4.82,19.64 7.64,29.34 0.48,1.66 3.03,3.76 4.71,3.85 7.08,0.38 14.2,-0.04 21.3,0.08 3.5,0.06 4.84,-1.39 5.66,-4.77 2.61,-10.81 5.88,-21.45 8.43,-32.27 1.09,-4.62 3.87,-6.65 7.9,-8.22 9.39,-3.68 18.62,-7.79 28.05,-11.36 2.06,-0.78 5.16,-0.84 7,0.18 10.62,5.87 21.09,12.02 31.42,18.38 3.19,1.97 5.33,1.98 7.9,-0.79 4.28,-4.59 8.79,-8.98 13.28,-13.37 2.69,-2.64 3.13,-5.01 0.96,-8.51 -5.64,-9.11 -10.56,-18.67 -16.27,-27.73 -3.07,-4.88 -2.89,-9.21 -0.68,-14.17 3.36,-7.56 6.8,-15.12 9.43,-22.95 2.16,-6.42 6.47,-9.29 12.58,-10.73 9.84,-2.31 19.58,-5.09 29.46,-7.16 3.65,-0.77 4.67,-2.47 4.65,-5.74 -0.06,-6.9 -0.07,-13.8 0,-20.7 0.04,-3.38 -1.28,-4.8 -4.79,-5.62 -11.41,-2.65 -22.77,-5.63 -33.97,-9.03 -2.44,-0.74 -4.99,-3.41 -6.11,-5.83 -4.31,-9.33 -7.85,-19.02 -12.12,-28.37 -1.87,-4.1 -0.95,-7.34 1.06,-10.78 5.5,-9.44 10.77,-19.02 16.57,-28.27 2.48,-3.95 1.83,-6.56 -1.27,-9.49 -4.26,-4.04 -8.41,-8.21 -12.42,-12.5 -2.64,-2.82 -4.84,-3.23 -8.38,-1.02 -10.29,6.43 -20.82,12.48 -31.4,18.43 -1.63,0.92 -4.3,1.29 -5.98,0.63 -10.14,-3.97 -20.24,-8.1 -30.11,-12.7 -2.55,-1.19 -5.3,-3.92 -6.12,-6.52 -3.45,-10.98 -6.39,-22.14 -9.1,-33.34 -0.85,-3.5 -2.39,-4.66 -5.77,-4.62 -6.9,0.1 -13.8,0.1 -20.7,-0.17 -3.59,-0.14 -4.79,1.27 -5.55,4.72 -2.19,9.86 -4.85,19.63 -7.44,29.4 -1.45,5.49 -4.13,9.65 -10.09,11.75 -8.93,3.15 -17.47,7.4 -26.35,10.75 -2.23,0.84 -5.58,0.92 -7.58,-0.17 -10.65,-5.8 -21.12,-11.95 -31.47,-18.28 -3.02,-1.85 -5.06,-1.71 -7.42,0.77 -4.62,4.85 -9.29,9.64 -14.12,14.28 -2.71,2.59 -2.68,4.72 -0.68,7.91 6.22,9.95 12.04,20.15 18,30.26 0.8,1.37 1.54,2.77 2.28,4.11 z"
   id="path2"
   inkscape:connector-curvature="0"
   style="fill:#ffffff;fill-opacity:1" />
	<path
   d="m 790.51,358.53 c -2.88,-1.4 -5.81,-2.72 -8.65,-4.21 -4.11,-2.17 -8.1,-4.58 -12.25,-6.69 -9.77,-4.95 -21.46,0.77 -23.91,11.43 -1.31,5.7 -2.62,11.47 -4.78,16.87 -0.9,2.26 -3.86,4.87 -6.16,5.16 -7,0.88 -14.15,1.08 -21.22,0.85 -8.3,-0.28 -10.25,-2.27 -12.53,-10.43 -1.36,-4.86 -2.9,-9.68 -4.22,-14.55 -2.3,-8.49 -14.85,-13.98 -22.68,-9.75 -5.51,2.98 -11.01,6 -16.38,9.23 -3.84,2.31 -7.23,2.31 -10.46,-0.89 -5.46,-5.41 -10.91,-10.82 -16.33,-16.26 -3.12,-3.14 -3.55,-6.48 -1.18,-10.42 3.43,-5.71 6.59,-11.59 9.74,-17.47 3.8,-7.11 -1.75,-19.91 -9.49,-22.07 -5.65,-1.58 -11.28,-3.19 -16.96,-4.65 -4.79,-1.23 -7.92,-3.79 -8.09,-9.08 -0.21,-6.68 -0.9,-13.37 -0.56,-20.02 0.45,-8.65 2.09,-10.05 10.59,-12.18 5.28,-1.32 10.68,-2.37 15.74,-4.31 8.23,-3.14 12.19,-14.64 8.09,-22.33 -2.95,-5.53 -5.85,-11.09 -9.02,-16.49 -2.26,-3.85 -2.24,-7.27 0.91,-10.5 5.65,-5.79 11.3,-11.58 17.02,-17.31 2.64,-2.65 5.39,-2.87 8.72,-0.75 4.76,3.04 9.74,5.77 14.79,8.31 3.84,1.94 6.68,6.14 12.5,3.28 7.03,-3.45 14.14,-5.87 14.88,-15.31 0.26,-3.37 1.54,-6.67 2.41,-9.99 2.83,-10.73 3.54,-11.32 14.4,-11.34 5.68,-0.01 11.36,0.01 17.03,0.29 4.33,0.22 7.68,1.72 8.71,6.78 0.96,4.73 3.08,9.22 4.1,13.94 1.98,9.23 9.09,16.08 18.25,16.73 1.25,0.09 2.66,-0.73 3.85,-1.39 6.55,-3.62 13.16,-7.14 19.52,-11.07 3.55,-2.2 6.13,-2.07 9.05,1 5.58,5.87 11.31,11.61 17.2,17.18 3.26,3.08 3.38,5.82 1.02,9.56 -3.77,5.98 -7.28,12.15 -10.37,18.5 -1.04,2.14 -0.83,5.1 -0.59,7.64 1.24,13.53 12.13,14.81 22.12,17.15 1.18,0.28 2.41,0.39 3.57,0.73 9.25,2.71 10.54,4.37 10.69,14.04 0.08,4.87 0.12,9.74 -0.06,14.61 -0.31,8.56 -1.84,10.39 -10.03,12.57 -4.68,1.25 -9.32,2.75 -14.08,3.61 -5.35,0.97 -7.93,4 -10.2,8.87 -2.98,6.38 -4.04,11.57 0.78,17.63 3.6,4.53 6.17,9.97 8.6,15.29 0.91,1.99 1.13,5.71 -0.08,7.02 -6.29,6.83 -13.11,13.18 -19.87,19.56 -0.9,0.89 -2.51,1.03 -4.13,1.63 z M 656.17,221.73 c -0.29,1.16 -0.4,1.98 -0.7,2.72 -2.83,6.91 -5.31,14.01 -8.74,20.61 -1.3,2.5 -4.58,4.47 -7.39,5.55 -5.26,2.02 -10.75,3.89 -16.3,4.59 -8.65,1.09 -5.44,7.38 -6.16,12.04 -0.84,5.47 3.26,6.32 7,7.28 4.5,1.16 9.11,1.91 13.61,3.08 4.32,1.12 8.47,2.45 10.26,7.43 2.04,5.69 4.44,11.25 6.86,16.79 1.65,3.77 1.92,7.1 -0.55,10.83 -3.45,5.22 -6,11.02 -9.44,16.25 -3.12,4.75 0.16,7.09 2.89,9.72 2.66,2.57 4.9,6.25 9.7,3.18 5.44,-3.49 10.97,-6.94 16.82,-9.63 2.75,-1.26 6.63,-1.64 9.49,-0.76 6.33,1.94 12.46,4.69 18.41,7.63 2.1,1.03 4.23,3.29 5,5.46 1.96,5.5 2.84,11.37 4.77,16.87 1.03,2.91 2.88,7.07 5.19,7.73 8.65,2.44 12.17,0.09 15.01,-8.27 0.58,-1.72 0.97,-3.52 1.25,-5.31 1.53,-9.93 5.66,-17.45 16.61,-19.55 3.29,-0.63 6.21,-3.16 9.5,-3.81 3.26,-0.64 7.17,-0.96 10.1,0.26 5.37,2.23 10.39,5.44 15.24,8.72 3.51,2.38 6.23,2.31 9.04,-0.76 1.09,-1.19 2.19,-2.44 3.49,-3.38 3.88,-2.8 4.09,-5.71 1.32,-9.64 -3.14,-4.45 -5.66,-9.33 -8.45,-14.03 -2.33,-3.93 -2.54,-7.9 -0.64,-12.14 2.47,-5.53 4.44,-11.28 7.09,-16.72 0.95,-1.94 2.96,-3.97 4.95,-4.68 5.69,-2.04 11.6,-3.48 17.45,-5.03 4.05,-1.08 7.5,-2.1 7.95,-7.51 0.86,-10.14 1.12,-11.81 -9.63,-13.08 -14.56,-1.71 -21.15,-9.5 -26.35,-22.38 -3.35,-8.31 -2.3,-14.06 1.78,-20.64 1.17,-1.89 2.33,-3.79 3.49,-5.68 5.81,-9.47 5.67,-9.34 -2.11,-17.26 -2.86,-2.92 -5.03,-2.94 -8.29,-0.83 -5.08,3.29 -10.29,6.52 -15.82,8.93 -3.04,1.32 -7.15,1.96 -10.23,1.05 -5.95,-1.77 -11.7,-4.49 -17.13,-7.54 -2.74,-1.54 -5.37,-4.3 -6.66,-7.15 -1.72,-3.79 -1.88,-8.25 -3.11,-12.31 -1.08,-3.59 -1.76,-8.15 -4.29,-10.27 -5.32,-4.45 -15.18,-0.06 -16.84,6.78 -1,4.13 -1.42,8.47 -2.98,12.37 -1.51,3.76 -3.36,8.33 -6.47,10.29 -5.56,3.49 -12.03,5.8 -18.42,7.54 -3.31,0.9 -7.61,0.38 -10.8,-1.01 -5.52,-2.4 -10.45,-6.13 -15.81,-8.97 -1.42,-0.75 -3.99,-1.02 -5.17,-0.23 -8.86,5.91 -9.57,9.49 -4.36,18.5 2.23,3.85 4.44,7.72 6.55,11.63 0.86,1.58 1.42,3.32 2.02,4.74 z"
   id="path4"
   inkscape:connector-curvature="0"
   style="fill:#ffffff;fill-opacity:1" />
	<path
   d="m 627.62,634.88 c 1.36,-3.08 2.49,-6.08 3.98,-8.91 1.6,-3.04 3.57,-5.88 5.3,-8.85 7.79,-13.35 2.62,-24.73 -12.57,-27.88 -3.56,-0.74 -7.02,-1.94 -10.58,-2.68 -5.98,-1.24 -9.01,-4.64 -8.96,-10.88 0.05,-7.08 -0.16,-14.17 -0.22,-21.26 -0.05,-5.15 3.14,-7.6 7.61,-8.88 5.82,-1.68 11.63,-3.39 17.48,-4.92 8.04,-2.1 13.62,-14.8 9.59,-22.33 -3.05,-5.7 -6.23,-11.34 -9.55,-16.9 -2.19,-3.67 -2.01,-6.9 0.97,-9.92 5.53,-5.62 11.07,-11.22 16.64,-16.8 3.21,-3.22 6.61,-3.21 10.45,-0.87 5.35,3.25 10.86,6.26 16.37,9.24 7.81,4.21 20.31,-1.29 22.61,-9.79 1.52,-5.65 3.22,-11.25 4.78,-16.89 1.32,-4.77 3.94,-7.95 9.3,-7.9 6.68,0.05 13.39,-0.23 20.04,0.28 9.46,0.73 9.97,1.58 12.2,11.08 1.24,5.3 2.48,10.66 4.48,15.7 2.96,7.46 14.66,11.3 21.66,7.51 5.51,-2.99 11.01,-5.99 16.38,-9.21 4.04,-2.43 7.64,-2.33 11.04,0.97 5.66,5.49 11.32,10.99 16.91,16.55 2.77,2.76 3.26,5.59 0.95,9.22 -3.89,6.14 -7.55,12.47 -10.7,19.01 -1.11,2.29 -0.98,5.54 -0.49,8.18 1.89,10.2 8.65,14.79 18.65,15.28 0.79,0.04 1.58,0.34 2.35,0.58 15.3,4.81 15.34,4.82 15.3,21 -0.06,22.72 0.34,18.24 -20.74,24.52 -9.75,2.9 -15.7,8.04 -16.95,18.08 -0.17,1.39 0.76,3.05 1.5,4.41 3.59,6.56 7.06,13.21 11.04,19.53 2.36,3.75 1.49,6.24 -1.35,9 -5.67,5.5 -11.27,11.08 -16.74,16.77 -2.93,3.04 -5.57,3.92 -9.51,1.39 -6.12,-3.92 -12.52,-7.45 -19.03,-10.68 -1.98,-0.99 -4.76,-0.83 -7.1,-0.58 -13.53,1.47 -15.14,12.26 -17.52,22.56 -3.09,13.32 -3.87,13.87 -17.44,13.98 -4.66,0.04 -9.33,-0.2 -13.99,-0.18 -5.81,0.02 -8.74,-3.26 -10.12,-8.47 -1.45,-5.47 -3.2,-10.88 -4.24,-16.42 -0.89,-4.75 -3.73,-6.65 -7.74,-8.92 -7.01,-3.98 -12.8,-4.08 -19.27,0.82 -4.15,3.15 -9.22,5.05 -13.6,7.94 -3.48,2.3 -6.43,2.24 -9.25,-0.64 -5.94,-6.06 -11.84,-12.17 -17.63,-18.38 -1,-1.14 -1.44,-2.79 -2.29,-4.46 z m 162.25,10.14 c 0.55,0.45 1.09,0.9 1.64,1.35 2.21,-2.88 4.2,-5.98 6.7,-8.57 2.42,-2.51 3.38,-4.39 1.04,-7.75 -3.46,-4.96 -6.65,-10.22 -9.05,-15.75 -1.4,-3.21 -2.13,-7.5 -1.21,-10.76 1.69,-5.96 4.34,-11.79 7.53,-17.11 1.76,-2.94 5.14,-5.39 8.34,-6.86 3.79,-1.73 8.23,-1.99 12.28,-3.22 3.2,-0.97 7.31,-1.59 9.13,-3.87 4.12,-5.16 -0.84,-15.4 -7.4,-17.02 -5.88,-1.45 -11.74,-3.04 -17.46,-5 -1.88,-0.64 -3.97,-2.33 -4.79,-4.08 -2.81,-6.03 -5.62,-12.15 -7.37,-18.53 -0.91,-3.32 -0.48,-7.62 0.88,-10.82 2.27,-5.35 5.82,-10.15 8.74,-15.24 0.77,-1.35 1.91,-3.01 1.68,-4.32 -1.18,-6.51 -12.12,-11.32 -17.42,-7.41 -10.67,7.85 -20.57,11.42 -34.16,4.47 -9.06,-4.63 -14.03,-9.77 -15.75,-19.16 -0.65,-3.57 -1.68,-7.07 -2.68,-10.56 -0.32,-1.1 -0.85,-2.4 -1.71,-3.04 -5.78,-4.32 -15.75,-0.14 -17.32,6.95 -1.31,5.9 -2.75,11.82 -4.79,17.49 -0.77,2.13 -3.11,4.18 -5.25,5.23 -5.6,2.73 -11.5,4.84 -17.24,7.3 -3.52,1.51 -6.68,1.95 -10.25,-0.41 -5.38,-3.56 -11.29,-6.33 -16.7,-9.85 -4.77,-3.1 -7.06,0.37 -9.69,3.04 -2.62,2.66 -6.14,4.94 -3.03,9.72 3.41,5.24 6,11.03 9.52,16.19 2.69,3.94 2.28,7.33 0.44,11.3 -2.46,5.3 -4.21,10.93 -6.87,16.11 -1.25,2.44 -3.53,5.08 -5.97,6.02 -5.43,2.09 -11.31,2.96 -16.87,4.74 -2.73,0.87 -6.77,2.16 -7.39,4.14 -1.14,3.66 -0.92,8.18 0.2,11.91 0.53,1.77 4.37,2.69 6.83,3.69 2.04,0.83 4.26,1.22 6.41,1.77 8.04,2.05 14.19,4.5 18.76,13.61 7.14,14.24 5.49,25.44 -3.88,36.84 -5.57,6.77 0.77,9.8 4.03,14.04 3.65,4.75 6.75,2.42 10.17,-0.09 10.77,-7.93 21.85,-13.31 34.62,-3.91 0.76,0.56 1.91,0.64 2.9,0.85 6.31,1.28 9.55,5.44 10.95,11.45 0.92,3.94 2.38,7.79 2.88,11.77 0.83,6.61 4.13,9.02 10.8,9.5 6.43,0.46 8.74,-2.15 9.53,-7.75 0.25,-1.78 0.82,-3.55 1.43,-5.26 1.86,-5.24 2.32,-12.4 6.04,-15.25 6.69,-5.13 15.24,-8.03 23.31,-11.06 2.09,-0.79 5.48,1 7.95,2.26 5.39,2.75 10.57,5.92 15.85,8.91 1.22,0.68 2.45,1.33 3.67,2 z"
   id="path6"
   inkscape:connector-curvature="0"
   style="fill:#ffffff;fill-opacity:1" />
	<path
   d="m 475.41,335.88 c 45.93,-1.4 79.59,38.05 80.32,77.39 0.83,44.22 -35.62,80.45 -77.8,81.39 -43.93,0.99 -80.66,-36.34 -81.25,-77.97 -0.64,-44.38 36.27,-81.69 78.73,-80.81 z M 542.99,415 c 0.03,-35.88 -30.76,-66.61 -66.77,-66.63 -36.19,-0.02 -66.44,29.95 -66.51,65.9 -0.08,37.21 29.41,67.37 66.07,67.59 36.23,0.21 67.18,-30.57 67.21,-66.86 z"
   id="path8"
   inkscape:connector-curvature="0"
   style="fill:#ffffff;fill-opacity:1" />
	<path
   d="m 666.83,264.66 c -1.22,-30.51 25.82,-55.76 55.4,-55.48 29.81,0.28 54.96,25.83 54.85,55.95 -0.11,29.66 -25.31,53.56 -55.56,54.41 -28.81,0.82 -56.83,-27.57 -54.69,-54.88 z m 13.3,-1.26 c -1.18,25.03 18.31,42.49 41.82,42.98 22.42,0.47 42.76,-19.64 41.97,-41.42 -0.95,-26.39 -18.5,-42.13 -43.59,-42.63 -23.51,-0.48 -42.26,22.98 -40.2,41.07 z"
   id="path10"
   inkscape:connector-curvature="0"
   style="fill:#ffffff;fill-opacity:1" />
	<path
   d="m 721.95,510.83 c 31.31,0.29 55.18,24.91 54.92,56.64 -0.24,28.94 -25.84,53.72 -55.31,53.37 -31.99,-0.38 -55.45,-26.4 -54.72,-56.17 0.74,-29.89 25.09,-54.11 55.11,-53.84 z m -42.15,54.81 c 0,23.33 18.67,42.28 41.77,42.4 22.86,0.11 42.14,-19.33 42.46,-41.96 0.34,-23.82 -20.66,-42.75 -42.41,-42.39 -23.65,0.39 -41.83,18.33 -41.82,41.95 z"
   id="path12"
   inkscape:connector-curvature="0"
   style="fill:#ffffff;fill-opacity:1" />
</g>
</svg>